<?xml version="1.0" encoding="UTF-8"?>
<svg width="55px" height="52px" viewBox="0 0 55 52" version="1.1" xmlns="http://www.w3.org/2000/svg" xmlns:xlink="http://www.w3.org/1999/xlink">
    <!-- Generator: Sketch 42 (36781) - http://www.bohemiancoding.com/sketch -->
    <title>person-icon</title>
    <desc>Created with Sketch.</desc>
    <defs>
        <polygon id="path-1" points="54.2608696 26.000113 54.2608696 52 0 52 0 26.000113 0 0.000226086956 54.2608696 0.000226086956"></polygon>
    </defs>
    <g id="Page-1" stroke="none" stroke-width="1" fill="none" fill-rule="evenodd">
        <g id="Ohi-Landing-01" transform="translate(-707.000000, -1707.000000)">
            <g id="person-icon" transform="translate(707.000000, 1707.000000)">
                <mask id="mask-2" fill="white">
                    <use xlink:href="#path-1"></use>
                </mask>
                <g id="Clip-2"></g>
                <path d="M49.7391304,45.2176174 C49.7391304,46.464487 48.7251304,47.478487 47.4782609,47.478487 L6.7826087,47.478487 C5.53573913,47.478487 4.52173913,46.464487 4.52173913,45.2176174 L4.52173913,40.7490087 C4.52173913,40.2222261 5.82456522,38.5209217 9.6946087,36.8987478 C14.2186087,35.001313 20.573913,33.9132696 27.1304348,33.9132696 C33.6835652,33.9132696 40.0371739,35.0041391 44.5628696,36.9055304 C48.4351739,38.5333565 49.7391304,40.237487 49.7391304,40.7665304 L49.7391304,45.2176174 Z M18.0869565,20.3480522 L18.0869565,13.5654435 C18.0869565,8.57118261 22.1361739,4.52196522 27.1304348,4.52196522 C32.1252609,4.52196522 36.173913,8.57118261 36.173913,13.5654435 L36.173913,20.3480522 C36.173913,25.342313 32.1252609,29.3915304 27.1304348,29.3915304 C22.1361739,29.3915304 18.0869565,25.342313 18.0869565,20.3480522 L18.0869565,20.3480522 Z M36.5531739,30.1014435 C39.1062609,27.6354 40.6956522,24.1774 40.6956522,20.3480522 L40.6956522,13.5654435 C40.6956522,6.07348696 34.6223913,0.000226086956 27.1304348,0.000226086956 C19.6384783,0.000226086956 13.5652174,6.07348696 13.5652174,13.5654435 L13.5652174,20.3480522 C13.5652174,24.1762696 15.1546087,27.6331391 17.706,30.0997478 C7.36873913,31.7100522 0,35.8847478 0,40.7490087 L0,45.2176174 C0,48.9650087 3.03521739,52.0002261 6.7826087,52.0002261 L47.4782609,52.0002261 C51.2256522,52.0002261 54.2608696,48.9650087 54.2608696,45.2176174 L54.2608696,40.7665304 C54.2608696,35.9028348 46.8915652,31.7151391 36.5531739,30.1014435 L36.5531739,30.1014435 Z" id="Fill-1" fill="#FFFFFF" mask="url(#mask-2)"></path>
            </g>
        </g>
    </g>
</svg>