<?xml version="1.0" encoding="UTF-8"?>
<svg width="50px" height="50px" viewBox="0 0 50 50" version="1.1" xmlns="http://www.w3.org/2000/svg" xmlns:xlink="http://www.w3.org/1999/xlink">
    <!-- Generator: Sketch 42 (36781) - http://www.bohemiancoding.com/sketch -->
    <title>Logo Icon</title>
    <desc>Created with Sketch.</desc>
    <defs></defs>
    <g id="Page-1" stroke="none" stroke-width="1" fill="none" fill-rule="evenodd">
        <g id="Ohi-Landing-01" transform="translate(-100.000000, -60.000000)">
            <g id="Logo-Icon" transform="translate(100.000000, 60.000000)">
                <path d="M43.4079091,0.303030303 L18.6036667,0.303030303 C15.1927576,0.303030303 12.4024545,3.09363636 12.4021515,6.50424242 L12.4021515,31.3087879 C12.4021515,34.7193939 15.1927576,37.509697 18.6036667,37.509697 L43.4079091,37.51 C46.8185152,37.509697 49.6091212,34.7193939 49.6091212,31.3087879 L49.6091212,6.50424242 C49.6091212,3.09363636 46.8185152,0.303030303 43.4079091,0.303030303" id="Fill-1" fill="#FF3232"></path>
                <path d="M31.0055758,12.7053939 L6.20133333,12.7053939 C2.79072727,12.7053939 0.000121212121,15.495697 0.000121212121,18.906303 L0.000121212121,43.7108485 C0.000121212121,47.1217576 2.79042424,49.9120606 6.20133333,49.9120606 L31.0058788,49.9120606 C34.4161818,49.9120606 37.2067879,47.1214545 37.2067879,43.7108485 L37.2067879,18.906303 C37.2067879,15.495697 34.4161818,12.7053939 31.0055758,12.7053939" id="Fill-4" fill="#5AD2DC"></path>
                <path d="M31.0055758,12.7052424 L12.4019394,12.7052424 L12.4019394,31.3088788 C12.4019394,34.7191818 15.1925455,37.5097879 18.6034545,37.5097879 L37.2067879,37.5097879 L37.2067879,18.9064545 C37.2067879,15.4958485 34.4161818,12.7052424 31.0055758,12.7052424" id="Fill-6" fill="#780064"></path>
            </g>
        </g>
    </g>
</svg>