<?xml version="1.0" encoding="UTF-8"?>
<svg width="70px" height="54px" viewBox="0 0 70 54" version="1.1" xmlns="http://www.w3.org/2000/svg" xmlns:xlink="http://www.w3.org/1999/xlink">
    <!-- Generator: Sketch 42 (36781) - http://www.bohemiancoding.com/sketch -->
    <title>Fill 1</title>
    <desc>Created with Sketch.</desc>
    <defs></defs>
    <g id="Page-1" stroke="none" stroke-width="1" fill="none" fill-rule="evenodd">
        <g id="Ohi-Landing-01" transform="translate(-332.000000, -3193.000000)" fill="#FFFFFF">
            <g id="Group-7-Copy" transform="translate(300.000000, 3159.000000)">
                <g id="Page-1" transform="translate(32.000000, 34.000000)">
                    <path d="M66.6582877,36.6105574 L53.6650007,36.6105574 L57.1832027,33.0923555 L61.1982256,29.0794618 C67.850658,22.4270294 67.850658,11.6417566 61.1982256,4.98932426 C54.5457933,-1.66310809 43.7605205,-1.66310809 37.1095076,4.98932426 L33.093775,9.00434718 L29.0780423,4.99074375 C22.4256099,-1.6616886 11.6403371,-1.6616886 4.98932426,4.99074375 C-1.66310809,11.6417566 -1.66310809,22.4270294 4.98932426,29.0794618 L9.00434718,33.0923555 L25.7692148,49.8572231 L25.7692148,49.8579329 L29.078752,53.1674701 C30.1873725,54.27751 31.9844448,54.27751 33.093775,53.1674701 C34.2023954,52.0588496 34.2023954,50.2617773 33.093775,49.1531569 L25.7692148,41.8285968 L17.034393,33.093775 L9.00576667,25.0644389 C4.57057519,20.6299571 4.57057519,13.4402484 9.00576667,9.00434718 C13.4416679,4.5691557 20.6299571,4.5691557 25.0644389,9.00434718 L33.093775,17.034393 L41.1238208,9.00434718 C45.5583025,4.5691557 52.748721,4.5691557 57.1832027,9.00434718 C61.3912761,13.21384 61.5985214,19.8975011 57.820553,24.3603726 L49.6017152,32.5742422 L49.6017152,19.5568239 C49.6017152,17.988999 48.3312731,16.7178471 46.7627384,16.7178471 C45.1942038,16.7178471 43.9237616,17.988999 43.9237616,19.5568239 L43.9237616,39.4303711 C43.9237616,40.9996156 45.2169156,42.288511 46.7854502,42.288511 L66.6582877,42.288511 C68.2268224,42.288511 69.4972645,41.0180689 69.4972645,39.4495342 C69.4972645,37.8809996 68.2268224,36.6105574 66.6582877,36.6105574" id="Fill-1"></path>
                </g>
            </g>
        </g>
    </g>
</svg>