<?xml version="1.0" encoding="UTF-8"?>
<svg width="60px" height="37px" viewBox="0 0 60 37" version="1.1" xmlns="http://www.w3.org/2000/svg" xmlns:xlink="http://www.w3.org/1999/xlink">
    <!-- Generator: Sketch 43 (38999) - http://www.bohemiancoding.com/sketch -->
    <title>Fill 1</title>
    <desc>Created with Sketch.</desc>
    <defs></defs>
    <g id="Page-1" stroke="none" stroke-width="1" fill="none" fill-rule="evenodd">
        <g id="Ohi-Landing-01" transform="translate(-210.000000, -4389.000000)" fill="#780064">
            <path d="M265.151359,4398.85764 C267.828869,4398.85764 270,4396.65074 270,4393.92912 C270,4391.2069 267.828869,4389 265.151359,4389 C262.473849,4389 260.302718,4391.2069 260.302718,4393.92912 C260.302718,4396.65074 262.473849,4398.85764 265.151359,4398.85764 M222.290395,4417.06441 C219.937396,4417.06441 218.029559,4415.12574 218.029559,4412.73338 C218.029559,4410.34161 219.937396,4408.40234 222.290395,4408.40234 C224.643395,4408.40234 226.551232,4410.34161 226.551232,4412.73338 C226.551232,4415.12574 224.643395,4417.06441 222.290395,4417.06441 M222.311792,4400.21936 C215.512521,4400.21936 210,4405.82209 210,4412.73338 C210,4419.64526 215.512521,4425.248 222.311792,4425.248 C229.111657,4425.248 234.623583,4419.64526 234.623583,4412.73338 C234.623583,4405.82209 229.111657,4400.21936 222.311792,4400.21936 M269.238648,4400.87182 L261.06407,4400.87182 C260.9559,4400.87182 260.869126,4400.96063 260.869126,4401.07058 L260.869126,4424.39677 C260.869126,4424.50672 260.9559,4424.59553 261.06407,4424.59553 L269.238648,4424.59553 C269.346818,4424.59553 269.433592,4424.50672 269.433592,4424.39677 L269.433592,4401.07058 C269.433592,4400.96063 269.346818,4400.87182 269.238648,4400.87182 M249.504715,4400.30635 L249.504715,4400.30635 L249.493423,4400.30635 L249.485696,4400.30635 C249.394762,4400.30635 249.302045,4400.30817 249.208139,4400.31058 C247.64918,4400.34804 246.261392,4400.6779 245.074491,4401.26874 L245.074491,4391.18938 C245.074491,4391.07943 244.987717,4390.99122 244.879547,4390.99122 L236.705563,4390.99122 C236.597987,4390.99122 236.510619,4391.07943 236.510619,4391.18938 L236.510619,4424.39677 C236.510619,4424.50672 236.597987,4424.59553 236.705563,4424.59553 L244.879547,4424.59553 C244.987717,4424.59553 245.074491,4424.50672 245.074491,4424.39677 L245.074491,4410.90587 C245.074491,4409.52301 246.177589,4408.40234 247.537444,4408.40234 C248.897298,4408.40234 249.999208,4409.52301 249.999208,4410.90587 L249.999208,4424.39677 C249.999208,4424.50672 250.086576,4424.59553 250.194152,4424.59553 L258.369324,4424.59553 C258.4769,4424.59553 258.564268,4424.50672 258.564268,4424.39677 L258.564268,4409.96947 C258.564268,4404.01573 255.093312,4400.31542 249.504715,4400.30635" id="Fill-1"></path>
        </g>
    </g>
</svg>