<?xml version="1.0" encoding="UTF-8"?>
<svg width="70px" height="52px" viewBox="0 0 70 52" version="1.1" xmlns="http://www.w3.org/2000/svg" xmlns:xlink="http://www.w3.org/1999/xlink">
    <!-- Generator: Sketch 42 (36781) - http://www.bohemiancoding.com/sketch -->
    <title>Fill 1</title>
    <desc>Created with Sketch.</desc>
    <defs></defs>
    <g id="Page-1" stroke="none" stroke-width="1" fill="none" fill-rule="evenodd">
        <g id="Ohi-Landing-01" transform="translate(-877.000000, -2534.000000)" fill="#FFFFFF">
            <g id="Group-7" transform="translate(847.000000, 2500.000000)">
                <g id="Group-9">
                    <path d="M71.9856667,69.6062778 C71.6122778,69.6062778 71.2331111,69.5333333 70.8676667,69.3802222 C69.3965,68.7612778 68.7053333,67.0683889 69.3235556,65.5972222 C70.0674444,63.8270556 70.4444444,61.9463889 70.4444444,60.0065 C70.4444444,58.0550556 70.0631111,56.1642778 69.3105556,54.3854444 C68.6894444,52.9157222 69.377,51.2206667 70.846,50.5988333 C72.3157222,49.977 74.0107778,50.6645556 74.6318889,52.1342778 C75.6870556,54.6295556 76.2222222,57.2779444 76.2222222,60.0065 C76.2222222,62.7191667 75.6935556,65.3531111 74.6499444,67.8361111 C74.1855556,68.9411111 73.1137778,69.6062778 71.9856667,69.6062778 L71.9856667,69.6062778 Z M89.4569444,85.623 C88.8979444,85.623 88.3324444,85.4605 87.8341111,85.1217778 C86.5153333,84.2240556 86.1744444,82.4271667 87.0721667,81.1083889 C91.3137778,74.8748889 93.5555556,67.5782778 93.5555556,60.0065 C93.5555556,52.4347222 91.3137778,45.1381111 87.0721667,38.9046111 C86.1744444,37.5858333 86.5153333,35.7889444 87.8341111,34.8912222 C89.1536111,33.9935 90.9505,34.3351111 91.8482222,35.6538889 C96.7448889,42.8493889 99.3333333,51.2705 99.3333333,60.0065 C99.3333333,68.7425 96.7448889,77.1636111 91.8482222,84.3591111 C91.2892222,85.1802778 90.3813889,85.623 89.4569444,85.623 L89.4569444,85.623 Z M80.8119444,77.6973333 C80.3063889,77.6973333 79.7957778,77.5658889 79.3321111,77.2878333 C77.9620556,76.4688333 77.5157222,74.6957778 78.3347222,73.3257222 C79.5126667,71.3555 80.4233889,69.2379444 81.0401667,67.0337222 C81.6771667,64.7587222 82,62.3948889 82,60.0065 C82,57.6181111 81.6771667,55.2542778 81.0401667,52.9792778 C80.4233889,50.7750556 79.5126667,48.6575 78.3347222,46.6872778 C77.5157222,45.3172222 77.9620556,43.5441667 79.3321111,42.7251667 C80.7007222,41.9061667 82.4745,42.3532222 83.2935,43.7225556 C84.7343333,46.1333333 85.848,48.7232222 86.6034444,51.4207222 C87.3827222,54.2034444 87.7777778,57.0923333 87.7777778,60.0065 C87.7777778,62.9206667 87.3827222,65.8095556 86.6034444,68.5922778 C85.848,71.2897778 84.7343333,73.8796667 83.2935,76.2904444 C82.7525556,77.1953889 81.7941667,77.6973333 80.8119444,77.6973333 L80.8119444,77.6973333 Z M53.1103889,47.8356111 L53.1111111,47.7222222 L53.1111111,72.0524444 L46.8371667,65.7777778 L38.6666667,65.7777778 C37.0734444,65.7777778 35.7777778,64.4821111 35.7777778,62.8888889 L35.7777778,57.2317222 C35.7777778,55.6002222 37.1008889,54.2222222 38.6666667,54.2222222 L46.8371667,54.2222222 L53.1103889,47.8356111 Z M38.6666667,48.4444444 C33.8783333,48.4444444 30,52.4433889 30,57.2317222 L30,62.8888889 C30,67.6772222 33.8783333,71.5555556 38.6666667,71.5555556 L44.4444444,71.5555556 L58.8888889,86 L58.8888889,34 L44.4444444,48.4444444 L38.6666667,48.4444444 Z" id="Fill-1"></path>
                </g>
            </g>
        </g>
    </g>
</svg>