<?xml version="1.0" encoding="UTF-8"?>
<svg width="260px" height="157px" viewBox="0 0 260 157" version="1.1" xmlns="http://www.w3.org/2000/svg" xmlns:xlink="http://www.w3.org/1999/xlink">
    <!-- Generator: Sketch 42 (36781) - http://www.bohemiancoding.com/sketch -->
    <title>OhiLogo</title>
    <desc>Created with Sketch.</desc>
    <defs></defs>
    <g id="Page-1" stroke="none" stroke-width="1" fill="none" fill-rule="evenodd">
        <g id="Ohi-Landing-01" transform="translate(-363.000000, -918.000000)" fill="#FFFFFF">
            <g id="Page-1" transform="translate(362.000000, 917.000000)">
                <path d="M239.875129,43.695365 C251.472158,43.695365 260.875921,34.1366817 260.875921,22.3485983 C260.875921,10.5578983 251.472158,0.999215 239.875129,0.999215 C228.278099,0.999215 218.874337,10.5578983 218.874337,22.3485983 C218.874337,34.1366817 228.278099,43.695365 239.875129,43.695365 M54.2325545,122.553848 C44.0410693,122.553848 35.777703,114.156965 35.777703,103.794965 C35.777703,93.4355817 44.0410693,85.0360817 54.2325545,85.0360817 C64.4240396,85.0360817 72.6874059,93.4355817 72.6874059,103.794965 C72.6874059,114.156965 64.4240396,122.553848 54.2325545,122.553848 M54.3252277,49.5933317 C24.8757228,49.5933317 0.999485149,73.8602983 0.999485149,103.794965 C0.999485149,133.732248 24.8757228,157.999215 54.3252277,157.999215 C83.7773069,157.999215 107.65097,133.732248 107.65097,103.794965 C107.65097,73.8602983 83.7773069,49.5933317 54.3252277,49.5933317 M257.578297,52.4193317 L222.17196,52.4193317 C221.703446,52.4193317 221.327604,52.8039817 221.327604,53.280215 L221.327604,154.312332 C221.327604,154.788565 221.703446,155.173215 222.17196,155.173215 L257.578297,155.173215 C258.046812,155.173215 258.422653,154.788565 258.422653,154.312332 L258.422653,53.280215 C258.422653,52.8039817 258.046812,52.4193317 257.578297,52.4193317 M172.105228,49.9701317 L172.105228,49.9701317 L172.056317,49.9701317 L172.022851,49.9701317 C171.62899,49.9701317 171.227406,49.9779817 170.820673,49.9884483 C164.068396,50.1506817 158.057505,51.5793817 152.916713,54.1384817 L152.916713,10.482015 C152.916713,10.0057817 152.540871,9.62374833 152.072356,9.62374833 L116.668594,9.62374833 C116.202653,9.62374833 115.824238,10.0057817 115.824238,10.482015 L115.824238,154.312332 C115.824238,154.788565 116.202653,155.173215 116.668594,155.173215 L152.072356,155.173215 C152.540871,155.173215 152.916713,154.788565 152.916713,154.312332 L152.916713,95.8795483 C152.916713,89.8899983 157.694535,85.0360817 163.584436,85.0360817 C169.474337,85.0360817 174.24701,89.8899983 174.24701,95.8795483 L174.24701,154.312332 C174.24701,154.788565 174.625426,155.173215 175.091366,155.173215 L210.500277,155.173215 C210.966218,155.173215 211.344634,154.788565 211.344634,154.312332 L211.344634,91.823715 C211.344634,66.036465 196.31097,50.0093817 172.105228,49.9701317" id="OhiLogo"></path>
            </g>
        </g>
    </g>
</svg>